<svg width="344" height="48" viewBox="0 0 344 48" fill="none" xmlns="http://www.w3.org/2000/svg">
<g id="SmartspaceAi-beige Copy">
<path id="Combined Shape Copy 3" fill-rule="evenodd" clip-rule="evenodd" d="M134.23 0H142.423V8.05594H149.222V14.7133H142.423V27.3007C142.423 28.3077 142.646 29.035 143.091 29.4825C143.537 29.9301 144.282 30.1538 145.328 30.1538H149.57V36.8112H142.772C137.077 36.8112 134.23 34.0699 134.23 28.5874V0ZM9.70405 30.3217C8.54189 29.5385 7.9027 28.5128 7.78649 27.2448H0C0.154955 30.303 1.53018 32.7179 4.12568 34.4895C6.72117 36.2611 10.0914 37.1469 14.2365 37.1469C16.9095 37.1469 19.2628 36.7646 21.2966 36C23.3304 35.2354 24.9187 34.1445 26.0615 32.7273C27.2043 31.31 27.7757 29.669 27.7757 27.8042C27.7757 24.8578 26.7007 22.7786 24.5507 21.5664C22.4007 20.3543 19.3113 19.5245 15.2824 19.0769C13.3842 18.8904 12.0284 18.7226 11.2149 18.5734C10.4014 18.4242 9.74279 18.1818 9.23919 17.8462C8.73559 17.5105 8.48378 17.007 8.48378 16.3357C8.48378 15.4033 8.95833 14.6573 9.90743 14.0979C10.8565 13.5385 12.1059 13.2587 13.6554 13.2587C15.3212 13.2587 16.6867 13.6037 17.752 14.2937C18.8173 14.9837 19.4081 15.8695 19.5243 16.951H27.3108C27.1171 14.042 25.7709 11.7669 23.2723 10.1259C20.7736 8.48485 17.4905 7.64569 13.423 7.60839C10.905 7.60839 8.67748 8 6.74054 8.78322C4.8036 9.56643 3.30248 10.676 2.23716 12.1119C1.17185 13.5478 0.639189 15.1981 0.639189 17.0629C0.639189 18.9277 1.16216 20.4196 2.20811 21.5385C3.25405 22.6573 4.64865 23.4779 6.39189 24C8.13514 24.5221 10.3239 24.951 12.9581 25.2867C14.895 25.5105 16.2896 25.7063 17.1419 25.8741C17.9941 26.042 18.6527 26.3124 19.1176 26.6853C19.5824 27.0583 19.8149 27.6177 19.8149 28.3636C19.8149 29.3706 19.3113 30.1445 18.3041 30.6853C17.2968 31.2261 15.9216 31.4965 14.1784 31.4965C12.3577 31.4965 10.8662 31.1049 9.70405 30.3217ZM75.0757 10.7972C73.0613 8.74592 70.4464 7.72028 67.2311 7.72028C64.9842 7.72028 62.9795 8.13986 61.2169 8.97902C59.4543 9.81818 58.0306 11.021 56.9459 12.5874C55.2802 9.34266 52.3167 7.72028 48.0554 7.72028C45.9635 7.75758 44.2203 8.11189 42.8257 8.78322C41.4311 9.45455 40.2302 10.4056 39.223 11.6364L38.4676 8.05594H31.3203V36.8671H39.5135V21.1469C39.5135 19.021 40.0462 17.3333 41.1115 16.0839C42.1768 14.8345 43.6005 14.2098 45.3824 14.2098C48.8689 14.2098 50.6122 16.3916 50.6122 20.7552V36.8671H58.8054V21.0909C58.8054 18.9277 59.3477 17.2401 60.4324 16.028C61.5171 14.8159 62.9505 14.2098 64.7324 14.2098C68.1802 14.2098 69.9041 16.3916 69.9041 20.7552V36.8671H78.0973V21.035C78.0973 16.2611 77.0901 12.8485 75.0757 10.7972ZM111.509 36.8112V30.1538H110.58C109.921 30.1538 109.437 30.0233 109.127 29.7622C108.817 29.5012 108.662 29.0163 108.662 28.3077V18.1818C108.662 14.7879 107.51 12.1958 105.205 10.4056C102.9 8.61539 99.636 7.72028 95.4135 7.72028C91.3847 7.72028 88.15 8.53147 85.7095 10.1538C83.2689 11.7762 81.9131 14.0606 81.6419 17.007H89.5446C89.7383 15.9254 90.3194 15.0676 91.2878 14.4336C92.2563 13.7995 93.4959 13.4825 95.0068 13.4825C96.7113 13.4825 98.0671 13.8648 99.0743 14.6294C100.082 15.3939 100.585 16.4289 100.585 17.7343V19.1329H94.6581C90.2032 19.1329 86.8038 19.9627 84.4601 21.6224C82.1164 23.2821 80.9446 25.641 80.9446 28.6993C80.9446 31.3846 81.9615 33.4639 83.9953 34.9371C86.0291 36.4103 88.7117 37.1469 92.0432 37.1469C94.2901 37.1469 96.2077 36.7179 97.7959 35.8601C99.3842 35.0023 100.721 33.7529 101.805 32.1119C101.728 35.2448 103.568 36.8112 107.326 36.8112H111.509ZM94.6 24.3916H100.585V24.951C100.546 26.9277 99.9072 28.5035 98.6676 29.6783C97.4279 30.8531 95.7428 31.4406 93.6122 31.4406C92.2563 31.4406 91.1813 31.1422 90.3872 30.5455C89.593 29.9487 89.1959 29.1469 89.1959 28.1399C89.1959 26.9464 89.6705 26.0233 90.6196 25.3706C91.5687 24.7179 92.8955 24.3916 94.6 24.3916ZM128.477 15.2168H131.731V8.05594H130.336C128.128 8.05594 126.366 8.41958 125.049 9.14685C123.732 9.87413 122.627 10.9464 121.736 12.3636L120.981 8.05594H113.543V36.8112H121.736V22.7133C121.736 20.4009 122.279 18.5734 123.364 17.2308C124.448 15.8881 126.153 15.2168 128.477 15.2168ZM160.436 30.3217C159.274 29.5385 158.635 28.5128 158.519 27.2448H150.732C150.887 30.303 152.263 32.7179 154.858 34.4895C157.454 36.2611 160.824 37.1469 164.969 37.1469C167.642 37.1469 169.995 36.7646 172.029 36C174.063 35.2354 175.651 34.1445 176.794 32.7273C177.937 31.31 178.508 29.669 178.508 27.8042C178.508 24.8578 177.433 22.7786 175.283 21.5664C173.133 20.3543 170.044 19.5245 166.015 19.0769C164.117 18.8904 162.761 18.7226 161.947 18.5734C161.134 18.4242 160.475 18.1818 159.972 17.8462C159.468 17.5105 159.216 17.007 159.216 16.3357C159.216 15.4033 159.691 14.6573 160.64 14.0979C161.589 13.5385 162.838 13.2587 164.388 13.2587C166.054 13.2587 167.419 13.6037 168.484 14.2937C169.55 14.9837 170.141 15.8695 170.257 16.951H178.043C177.85 14.042 176.503 11.7669 174.005 10.1259C171.506 8.48485 168.223 7.64569 164.155 7.60839C161.637 7.60839 159.41 8 157.473 8.78322C155.536 9.56643 154.035 10.676 152.97 12.1119C151.904 13.5478 151.372 15.1981 151.372 17.0629C151.372 18.9277 151.895 20.4196 152.941 21.5385C153.986 22.6573 155.381 23.4779 157.124 24C158.868 24.5221 161.056 24.951 163.691 25.2867C165.627 25.5105 167.022 25.7063 167.874 25.8741C168.727 26.042 169.385 26.3124 169.85 26.6853C170.315 27.0583 170.547 27.6177 170.547 28.3636C170.547 29.3706 170.044 30.1445 169.036 30.6853C168.029 31.2261 166.654 31.4965 164.911 31.4965C163.09 31.4965 161.599 31.1049 160.436 30.3217ZM206.429 9.53846C204.357 8.32634 201.984 7.72028 199.311 7.72028C197.258 7.72028 195.447 8.11189 193.878 8.89511C192.309 9.67832 191.021 10.7226 190.014 12.028L189.2 8.05594H182.053V48H190.246V33.1748C192.415 35.8228 195.418 37.1469 199.253 37.1469C201.926 37.1469 204.308 36.5408 206.4 35.3287C208.492 34.1165 210.129 32.4103 211.31 30.2098C212.492 28.0093 213.082 25.4359 213.082 22.4895C213.082 19.5431 212.492 16.951 211.31 14.7133C210.129 12.4755 208.502 10.7506 206.429 9.53846ZM202.739 28.3916C201.383 29.9394 199.601 30.7133 197.393 30.7133C195.185 30.7133 193.423 29.9487 192.105 28.4196C190.788 26.8904 190.13 24.8765 190.13 22.3776C190.13 19.9161 190.788 17.9301 192.105 16.4196C193.423 14.9091 195.185 14.1538 197.393 14.1538C199.601 14.1538 201.383 14.9091 202.739 16.4196C204.095 17.9301 204.773 19.9161 204.773 22.3776C204.773 24.8392 204.095 26.8438 202.739 28.3916ZM245.855 30.1538V36.8112H241.672C237.914 36.8112 236.074 35.2448 236.151 32.1119C235.067 33.7529 233.73 35.0023 232.142 35.8601C230.554 36.7179 228.636 37.1469 226.389 37.1469C223.058 37.1469 220.375 36.4103 218.341 34.9371C216.307 33.4639 215.291 31.3846 215.291 28.6993C215.291 25.641 216.462 23.2821 218.806 21.6224C221.15 19.9627 224.549 19.1329 229.004 19.1329H234.931V17.7343C234.931 16.4289 234.427 15.3939 233.42 14.6294C232.413 13.8648 231.057 13.4825 229.353 13.4825C227.842 13.4825 226.602 13.7995 225.634 14.4336C224.665 15.0676 224.084 15.9254 223.891 17.007H215.988C216.259 14.0606 217.615 11.7762 220.055 10.1538C222.496 8.53147 225.731 7.72028 229.759 7.72028C233.982 7.72028 237.246 8.61539 239.551 10.4056C241.856 12.1958 243.008 14.7879 243.008 18.1818V28.3077C243.008 29.0163 243.163 29.5012 243.473 29.7622C243.783 30.0233 244.267 30.1538 244.926 30.1538H245.855ZM234.931 24.3916H228.946C227.241 24.3916 225.915 24.7179 224.966 25.3706C224.016 26.0233 223.542 26.9464 223.542 28.1399C223.542 29.1469 223.939 29.9487 224.733 30.5455C225.527 31.1422 226.602 31.4406 227.958 31.4406C230.089 31.4406 231.774 30.8531 233.014 29.6783C234.253 28.5035 234.892 26.9277 234.931 24.951V24.3916ZM276.595 25.9021C276.052 29.4079 274.512 32.1585 271.975 34.1538C269.438 36.1492 266.155 37.1469 262.126 37.1469C259.027 37.1469 256.315 36.5408 253.991 35.3287C251.666 34.1166 249.875 32.3916 248.616 30.1538C247.357 27.9161 246.727 25.3427 246.727 22.4336C246.727 19.4872 247.357 16.9044 248.616 14.6853C249.875 12.4662 251.676 10.7506 254.02 9.53846C256.363 8.32634 259.085 7.72028 262.184 7.72028C266.174 7.72028 269.428 8.6993 271.946 10.6573C274.464 12.6154 276.014 15.3287 276.595 18.7972H268.111C267.762 17.38 267.065 16.2517 266.019 15.4126C264.973 14.5734 263.675 14.1538 262.126 14.1538C259.995 14.1538 258.291 14.9184 257.012 16.4476C255.734 17.9767 255.095 19.972 255.095 22.4336C255.095 24.8951 255.734 26.8904 257.012 28.4196C258.291 29.9487 259.995 30.7133 262.126 30.7133C263.714 30.7133 265.041 30.2844 266.106 29.4266C267.171 28.5688 267.859 27.3939 268.169 25.9021H276.595ZM278.28 22.4895C278.28 19.5058 278.909 16.9044 280.168 14.6853C281.427 12.4662 283.19 10.7506 285.456 9.53846C287.722 8.32634 290.347 7.72028 293.33 7.72028C296.351 7.72028 299.015 8.28904 301.32 9.42657C303.625 10.5641 305.426 12.1678 306.724 14.2378C308.021 16.3077 308.69 18.7413 308.728 21.5385C308.728 22.5455 308.651 23.4406 308.496 24.2238H286.822V24.4476C287.015 26.5361 287.713 28.1772 288.914 29.3706C290.114 30.5641 291.761 31.1608 293.853 31.1608C295.518 31.1608 296.903 30.8158 298.007 30.1259C299.111 29.4359 299.838 28.4196 300.186 27.0769H308.264C307.954 28.979 307.198 30.6946 305.997 32.2238C304.796 33.7529 303.208 34.9557 301.232 35.8322C299.257 36.7086 296.991 37.1469 294.434 37.1469C291.102 37.1469 288.226 36.5501 285.805 35.3566C283.384 34.1632 281.524 32.4569 280.226 30.2378C278.929 28.0186 278.28 25.4359 278.28 22.4895ZM300.535 19.0769C300.264 17.324 299.518 15.972 298.298 15.021C297.078 14.0699 295.538 13.5944 293.678 13.5944C291.896 13.5944 290.395 14.0886 289.175 15.0769C287.955 16.0653 287.228 17.3986 286.996 19.0769H300.535Z" fill="#F7F5EF"/>
<path id="Combined Shape" fill-rule="evenodd" clip-rule="evenodd" d="M316.881 0C314.528 0 312.622 1.90692 312.622 4.25921V20.3562C312.622 22.7085 314.528 24.6154 316.881 24.6154H339.741C342.093 24.6154 344 22.7085 344 20.3562V4.2592C344 1.90691 342.093 0 339.741 0H316.881ZM338.509 5.38462C338.175 5.07692 337.753 4.92308 337.245 4.92308C336.736 4.92308 336.312 5.07692 335.97 5.38462C335.629 5.69231 335.458 6.07863 335.458 6.54359C335.458 7.00855 335.629 7.39829 335.97 7.71282C336.312 8.02735 336.736 8.18462 337.245 8.18462C337.753 8.18462 338.175 8.02735 338.509 7.71282C338.843 7.39829 339.01 7.00855 339.01 6.54359C339.01 6.07863 338.843 5.69231 338.509 5.38462ZM338.77 9.31282H335.698V19.8564H338.77V9.31282ZM334.499 17.4154V19.8564H332.93C331.521 19.8564 330.831 19.2821 330.86 18.1333C330.454 18.735 329.952 19.1932 329.357 19.5077C328.761 19.8222 328.042 19.9795 327.199 19.9795C325.95 19.9795 324.944 19.7094 324.181 19.1692C323.419 18.6291 323.037 17.8667 323.037 16.8821C323.037 15.7607 323.477 14.8957 324.356 14.2872C325.235 13.6786 326.509 13.3744 328.18 13.3744H330.403V12.8615C330.403 12.3829 330.214 12.0034 329.836 11.7231C329.458 11.4427 328.95 11.3026 328.311 11.3026C327.744 11.3026 327.279 11.4188 326.916 11.6513C326.553 11.8838 326.335 12.1983 326.262 12.5949H323.299C323.401 11.5145 323.909 10.6769 324.824 10.0821C325.739 9.48718 326.952 9.18974 328.463 9.18974C330.047 9.18974 331.271 9.51795 332.135 10.1744C332.999 10.8308 333.432 11.7812 333.432 13.0256V16.7385C333.432 16.9983 333.49 17.1761 333.606 17.2718C333.722 17.3675 333.904 17.4154 334.151 17.4154H334.499ZM330.403 15.3026H328.158C327.519 15.3026 327.021 15.4222 326.666 15.6615C326.31 15.9009 326.132 16.2393 326.132 16.6769C326.132 17.0462 326.281 17.3402 326.578 17.559C326.876 17.7778 327.279 17.8872 327.788 17.8872C328.587 17.8872 329.219 17.6718 329.684 17.241C330.148 16.8103 330.388 16.2325 330.403 15.5077V15.3026ZM318.374 17.0359C318.026 17.3573 317.851 17.7709 317.851 18.2769C317.851 18.7692 318.026 19.1761 318.374 19.4974C318.723 19.8188 319.166 19.9795 319.704 19.9795C320.226 19.9795 320.666 19.8188 321.022 19.4974C321.378 19.1761 321.556 18.7692 321.556 18.2769C321.556 17.7846 321.378 17.3744 321.022 17.0462C320.666 16.7179 320.226 16.5538 319.704 16.5538C319.166 16.5538 318.723 16.7145 318.374 17.0359Z" fill="#F7F5EF"/>
</g>
</svg>
