<?xml version="1.0" encoding="UTF-8"?>
<svg width="344px" height="58px" viewBox="0 0 344 58" version="1.1" xmlns="http://www.w3.org/2000/svg" xmlns:xlink="http://www.w3.org/1999/xlink">
    <title>smartspace-purple</title>
    <g id="smartspace-purple" stroke="none" stroke-width="1" fill="none" fill-rule="evenodd">
        <g id="SmartspaceAi-beige-Copy-2" transform="translate(0, 7)" fill="#6543FC">
            <path d="M7.78648649,27.2447552 C7.9027027,28.5128205 8.54189189,29.5384615 9.70405405,30.3216783 C10.8662162,31.1048951 12.3576577,31.4965035 14.1783784,31.4965035 C15.9216216,31.4965035 17.2968468,31.2261072 18.3040541,30.6853147 C19.3112613,30.1445221 19.8148649,29.3706294 19.8148649,28.3636364 C19.8148649,27.6177156 19.5824324,27.0582751 19.1175676,26.6853147 C18.6527027,26.3123543 17.9941441,26.041958 17.1418919,25.8741259 C16.2896396,25.7062937 14.895045,25.5104895 12.9581081,25.2867133 C10.3238739,24.951049 8.13513514,24.5221445 6.39189189,24 C4.64864865,23.4778555 3.25405405,22.6573427 2.20810811,21.5384615 C1.16216216,20.4195804 0.639189189,18.9277389 0.639189189,17.0629371 C0.639189189,15.1981352 1.17184685,13.5477855 2.23716216,12.1118881 C3.30247748,10.6759907 4.8036036,9.56643357 6.74054054,8.78321678 C8.67747748,8 10.904955,7.60839161 13.422973,7.60839161 C17.4905405,7.64568765 20.7736486,8.48484848 23.2722973,10.1258741 C25.7709459,11.7668998 27.1171171,14.041958 27.3108108,16.951049 L19.5243243,16.951049 C19.4081081,15.8694639 18.8173423,14.983683 17.752027,14.2937063 C16.6867117,13.6037296 15.3211712,13.2587413 13.6554054,13.2587413 C12.1058559,13.2587413 10.8565315,13.5384615 9.90743243,14.0979021 C8.95833333,14.6573427 8.48378378,15.4032634 8.48378378,16.3356643 C8.48378378,17.006993 8.73558559,17.5104895 9.23918919,17.8461538 C9.74279279,18.1818182 10.4013514,18.4242424 11.2148649,18.5734266 C12.0283784,18.7226107 13.3842342,18.8904429 15.2824324,19.0769231 C19.3112613,19.5244755 22.4006757,20.3543124 24.5506757,21.5664336 C26.7006757,22.7785548 27.7756757,24.8578089 27.7756757,27.8041958 C27.7756757,29.6689977 27.2042793,31.3100233 26.0614865,32.7272727 C24.9186937,34.1445221 23.3304054,35.2354312 21.2966216,36 C19.2628378,36.7645688 16.9094595,37.1468531 14.2364865,37.1468531 C10.0914414,37.1468531 6.72117117,36.2610723 4.12567568,34.4895105 C1.53018018,32.7179487 0.154954955,30.3030303 0,27.2447552 L7.78648649,27.2447552 Z M67.2310811,7.72027972 C70.4463964,7.72027972 73.0612613,8.74592075 75.0756757,10.7972028 C77.0900901,12.8484848 78.0972973,16.2610723 78.0972973,21.034965 L78.0972973,36.8671329 L69.9040541,36.8671329 L69.9040541,20.7552448 C69.9040541,16.3916084 68.1801802,14.2097902 64.7324324,14.2097902 C62.9504505,14.2097902 61.5171171,14.8158508 60.4324324,16.027972 C59.3477477,17.2400932 58.8054054,18.9277389 58.8054054,21.0909091 L58.8054054,36.8671329 L50.6121622,36.8671329 L50.6121622,20.7552448 C50.6121622,16.3916084 48.8689189,14.2097902 45.3824324,14.2097902 C43.6004505,14.2097902 42.1768018,14.8344988 41.1114865,16.0839161 C40.0461712,17.3333333 39.5135135,19.020979 39.5135135,21.1468531 L39.5135135,36.8671329 L31.3202703,36.8671329 L31.3202703,8.05594406 L38.4675676,8.05594406 L39.222973,11.6363636 C40.2301802,10.4055944 41.4310811,9.45454545 42.8256757,8.78321678 C44.2202703,8.11188811 45.9635135,7.75757576 48.0554054,7.72027972 C52.3166667,7.72027972 55.2801802,9.34265734 56.9459459,12.5874126 C58.0306306,11.020979 59.4542793,9.81818182 61.2168919,8.97902098 C62.9795045,8.13986014 64.9842342,7.72027972 67.2310811,7.72027972 Z M111.509459,30.1538462 L111.509459,36.8111888 L107.325676,36.8111888 C103.568018,36.8111888 101.727928,35.2447552 101.805405,32.1118881 C100.720721,33.7529138 99.3842342,35.002331 97.7959459,35.8601399 C96.2076577,36.7179487 94.2900901,37.1468531 92.0432432,37.1468531 C88.7117117,37.1468531 86.0290541,36.4102564 83.9952703,34.9370629 C81.9614865,33.4638695 80.9445946,31.3846154 80.9445946,28.6993007 C80.9445946,25.6410256 82.1164414,23.2820513 84.4601351,21.6223776 C86.8038288,19.962704 90.2031532,19.1328671 94.6581081,19.1328671 L100.585135,19.1328671 L100.585135,17.7342657 C100.585135,16.4289044 100.081532,15.3939394 99.0743243,14.6293706 C98.0671171,13.8648019 96.7112613,13.4825175 95.0067568,13.4825175 C93.4959459,13.4825175 92.2563063,13.7995338 91.2878378,14.4335664 C90.3193694,15.0675991 89.7382883,15.9254079 89.5445946,17.006993 L81.6418919,17.006993 C81.9130631,14.0606061 83.2689189,11.7762238 85.7094595,10.1538462 C88.15,8.53146853 91.3846847,7.72027972 95.4135135,7.72027972 C99.636036,7.72027972 102.899775,8.61538462 105.20473,10.4055944 C107.509685,12.1958042 108.662162,14.7878788 108.662162,18.1818182 L108.662162,28.3076923 C108.662162,29.016317 108.817117,29.5011655 109.127027,29.7622378 C109.436937,30.02331 109.921171,30.1538462 110.57973,30.1538462 L111.509459,30.1538462 Z M100.585135,24.3916084 L94.6,24.3916084 C92.8954955,24.3916084 91.5686937,24.7179487 90.6195946,25.3706294 C89.6704955,26.02331 89.1959459,26.9463869 89.1959459,28.1398601 C89.1959459,29.1468531 89.593018,29.9487179 90.3871622,30.5454545 C91.1813063,31.1421911 92.2563063,31.4405594 93.6121622,31.4405594 C95.7427928,31.4405594 97.4279279,30.8531469 98.6675676,29.6783217 C99.9072072,28.5034965 100.546396,26.9277389 100.585135,24.951049 L100.585135,24.3916084 Z M131.731081,8.05594406 L131.731081,15.2167832 L128.477027,15.2167832 C126.152703,15.2167832 124.448198,15.8881119 123.363514,17.2307692 C122.278829,18.5734266 121.736486,20.4009324 121.736486,22.7132867 L121.736486,36.8111888 L113.543243,36.8111888 L113.543243,8.05594406 L120.981081,8.05594406 L121.736486,12.3636364 C122.627477,10.9463869 123.731532,9.87412587 125.048649,9.14685315 C126.365766,8.41958042 128.128378,8.05594406 130.336486,8.05594406 L131.731081,8.05594406 Z M134.22973,0 L142.422973,0 L142.422973,8.05594406 L149.221622,8.05594406 L149.221622,14.7132867 L142.422973,14.7132867 L142.422973,27.3006993 C142.422973,28.3076923 142.645721,29.034965 143.091216,29.4825175 C143.536712,29.9300699 144.282432,30.1538462 145.328378,30.1538462 L149.57027,30.1538462 L149.57027,36.8111888 L142.771622,36.8111888 C137.077027,36.8111888 134.22973,34.0699301 134.22973,28.5874126 L134.22973,0 Z M158.518919,27.2447552 C158.635135,28.5128205 159.274324,29.5384615 160.436486,30.3216783 C161.598649,31.1048951 163.09009,31.4965035 164.910811,31.4965035 C166.654054,31.4965035 168.029279,31.2261072 169.036486,30.6853147 C170.043694,30.1445221 170.547297,29.3706294 170.547297,28.3636364 C170.547297,27.6177156 170.314865,27.0582751 169.85,26.6853147 C169.385135,26.3123543 168.726577,26.041958 167.874324,25.8741259 C167.022072,25.7062937 165.627477,25.5104895 163.690541,25.2867133 C161.056306,24.951049 158.867568,24.5221445 157.124324,24 C155.381081,23.4778555 153.986486,22.6573427 152.940541,21.5384615 C151.894595,20.4195804 151.371622,18.9277389 151.371622,17.0629371 C151.371622,15.1981352 151.904279,13.5477855 152.969595,12.1118881 C154.03491,10.6759907 155.536036,9.56643357 157.472973,8.78321678 C159.40991,8 161.637387,7.60839161 164.155405,7.60839161 C168.222973,7.64568765 171.506081,8.48484848 174.00473,10.1258741 C176.503378,11.7668998 177.84955,14.041958 178.043243,16.951049 L170.256757,16.951049 C170.140541,15.8694639 169.549775,14.983683 168.484459,14.2937063 C167.419144,13.6037296 166.053604,13.2587413 164.387838,13.2587413 C162.838288,13.2587413 161.588964,13.5384615 160.639865,14.0979021 C159.690766,14.6573427 159.216216,15.4032634 159.216216,16.3356643 C159.216216,17.006993 159.468018,17.5104895 159.971622,17.8461538 C160.475225,18.1818182 161.133784,18.4242424 161.947297,18.5734266 C162.760811,18.7226107 164.116667,18.8904429 166.014865,19.0769231 C170.043694,19.5244755 173.133108,20.3543124 175.283108,21.5664336 C177.433108,22.7785548 178.508108,24.8578089 178.508108,27.8041958 C178.508108,29.6689977 177.936712,31.3100233 176.793919,32.7272727 C175.651126,34.1445221 174.062838,35.2354312 172.029054,36 C169.99527,36.7645688 167.641892,37.1468531 164.968919,37.1468531 C160.823874,37.1468531 157.453604,36.2610723 154.858108,34.4895105 C152.262613,32.7179487 150.887387,30.3030303 150.732432,27.2447552 L158.518919,27.2447552 Z M199.310811,7.72027972 C201.983784,7.72027972 204.356532,8.32634033 206.429054,9.53846154 C208.501577,10.7505828 210.128604,12.4755245 211.310135,14.7132867 C212.491667,16.951049 213.082432,19.5431235 213.082432,22.4895105 C213.082432,25.4358974 212.491667,28.009324 211.310135,30.2097902 C210.128604,32.4102564 208.491892,34.1165501 206.4,35.3286713 C204.308108,36.5407925 201.925676,37.1468531 199.252703,37.1468531 C195.417568,37.1468531 192.415315,35.8228438 190.245946,33.1748252 L190.245946,48 L182.052703,48 L182.052703,8.05594406 L189.2,8.05594406 L190.013514,12.027972 C191.020721,10.7226107 192.308784,9.67832168 193.877703,8.8951049 C195.446622,8.11188811 197.257658,7.72027972 199.310811,7.72027972 Z M197.393243,30.7132867 C199.601351,30.7132867 201.383333,29.9393939 202.739189,28.3916084 C204.095045,26.8438228 204.772973,24.8391608 204.772973,22.3776224 C204.772973,19.9160839 204.095045,17.9300699 202.739189,16.4195804 C201.383333,14.9090909 199.601351,14.1538462 197.393243,14.1538462 C195.185135,14.1538462 193.422523,14.9090909 192.105405,16.4195804 C190.788288,17.9300699 190.12973,19.9160839 190.12973,22.3776224 C190.12973,24.8764569 190.788288,26.8904429 192.105405,28.4195804 C193.422523,29.9487179 195.185135,30.7132867 197.393243,30.7132867 Z M245.855405,30.1538462 L245.855405,36.8111888 L241.671622,36.8111888 C237.913964,36.8111888 236.073874,35.2447552 236.151351,32.1118881 C235.066667,33.7529138 233.73018,35.002331 232.141892,35.8601399 C230.553604,36.7179487 228.636036,37.1468531 226.389189,37.1468531 C223.057658,37.1468531 220.375,36.4102564 218.341216,34.9370629 C216.307432,33.4638695 215.290541,31.3846154 215.290541,28.6993007 C215.290541,25.6410256 216.462387,23.2820513 218.806081,21.6223776 C221.149775,19.962704 224.549099,19.1328671 229.004054,19.1328671 L234.931081,19.1328671 L234.931081,17.7342657 C234.931081,16.4289044 234.427477,15.3939394 233.42027,14.6293706 C232.413063,13.8648019 231.057207,13.4825175 229.352703,13.4825175 C227.841892,13.4825175 226.602252,13.7995338 225.633784,14.4335664 C224.665315,15.0675991 224.084234,15.9254079 223.890541,17.006993 L215.987838,17.006993 C216.259009,14.0606061 217.614865,11.7762238 220.055405,10.1538462 C222.495946,8.53146853 225.730631,7.72027972 229.759459,7.72027972 C233.981982,7.72027972 237.245721,8.61538462 239.550676,10.4055944 C241.855631,12.1958042 243.008108,14.7878788 243.008108,18.1818182 L243.008108,28.3076923 C243.008108,29.016317 243.163063,29.5011655 243.472973,29.7622378 C243.782883,30.02331 244.267117,30.1538462 244.925676,30.1538462 L245.855405,30.1538462 Z M234.931081,24.3916084 L228.945946,24.3916084 C227.241441,24.3916084 225.91464,24.7179487 224.965541,25.3706294 C224.016441,26.02331 223.541892,26.9463869 223.541892,28.1398601 C223.541892,29.1468531 223.938964,29.9487179 224.733108,30.5454545 C225.527252,31.1421911 226.602252,31.4405594 227.958108,31.4405594 C230.088739,31.4405594 231.773874,30.8531469 233.013514,29.6783217 C234.253153,28.5034965 234.892342,26.9277389 234.931081,24.951049 L234.931081,24.3916084 Z M276.594595,25.9020979 C276.052252,29.4079254 274.512387,32.1585082 271.975,34.1538462 C269.437613,36.1491841 266.154505,37.1468531 262.125676,37.1468531 C259.026577,37.1468531 256.314865,36.5407925 253.990541,35.3286713 C251.666216,34.1165501 249.87455,32.3916084 248.615541,30.1538462 C247.356532,27.9160839 246.727027,25.3426573 246.727027,22.4335664 C246.727027,19.4871795 247.356532,16.9044289 248.615541,14.6853147 C249.87455,12.4662005 251.675901,10.7505828 254.019595,9.53846154 C256.363288,8.32634033 259.084685,7.72027972 262.183784,7.72027972 C266.173874,7.72027972 269.427928,8.6993007 271.945946,10.6573427 C274.463964,12.6153846 276.013514,15.3286713 276.594595,18.7972028 L268.110811,18.7972028 C267.762162,17.3799534 267.064865,16.2517483 266.018919,15.4125874 C264.972973,14.5734266 263.675225,14.1538462 262.125676,14.1538462 C259.995045,14.1538462 258.290541,14.9184149 257.012162,16.4475524 C255.733784,17.97669 255.094595,19.972028 255.094595,22.4335664 C255.094595,24.8951049 255.733784,26.8904429 257.012162,28.4195804 C258.290541,29.9487179 259.995045,30.7132867 262.125676,30.7132867 C263.713964,30.7132867 265.040766,30.2843823 266.106081,29.4265734 C267.171396,28.5687646 267.859009,27.3939394 268.168919,25.9020979 L276.594595,25.9020979 Z M278.27973,22.4895105 C278.27973,19.5058275 278.909234,16.9044289 280.168243,14.6853147 C281.427252,12.4662005 283.189865,10.7505828 285.456081,9.53846154 C287.722297,8.32634033 290.346847,7.72027972 293.32973,7.72027972 C296.351351,7.72027972 299.01464,8.28904429 301.319595,9.42657343 C303.62455,10.5641026 305.425901,12.1678322 306.723649,14.2377622 C308.021396,16.3076923 308.68964,18.7412587 308.728378,21.5384615 C308.728378,22.5454545 308.650901,23.4405594 308.495946,24.2237762 L286.821622,24.2237762 L286.821622,24.4475524 C287.015315,26.5361305 287.712613,28.1771562 288.913514,29.3706294 C290.114414,30.5641026 291.760811,31.1608392 293.852703,31.1608392 C295.518468,31.1608392 296.903378,30.8158508 298.007432,30.1258741 C299.111486,29.4358974 299.837838,28.4195804 300.186486,27.0769231 L308.263514,27.0769231 C307.953604,28.979021 307.198198,30.6946387 305.997297,32.2237762 C304.796396,33.7529138 303.208108,34.955711 301.232432,35.8321678 C299.256757,36.7086247 296.990541,37.1468531 294.433784,37.1468531 C291.102252,37.1468531 288.225901,36.5501166 285.80473,35.3566434 C283.383559,34.1631702 281.524099,32.4568765 280.226351,30.2377622 C278.928604,28.018648 278.27973,25.4358974 278.27973,22.4895105 Z M300.535135,19.0769231 C300.263964,17.3240093 299.518243,15.972028 298.297973,15.020979 C297.077703,14.0699301 295.537838,13.5944056 293.678378,13.5944056 C291.896396,13.5944056 290.39527,14.0885781 289.175,15.0769231 C287.95473,16.0652681 287.228378,17.3986014 286.995946,19.0769231 L300.535135,19.0769231 Z" id="Combined-Shape-Copy-3" fill-rule="nonzero"></path>
            <path d="M339.7408,0 C342.093091,1.6571454e-15 344,1.90690879 344,4.2592 L344,20.3561846 C344,22.7084758 342.093091,24.6153846 339.7408,24.6153846 L316.880822,24.6153846 C314.52853,24.6153846 312.621622,22.7084758 312.621622,20.3561846 L312.621622,4.2592 C312.621622,1.90690879 314.52853,1.17625101e-15 316.880822,8.8817842e-16 L339.7408,0 Z M319.703547,16.5538462 C319.166047,16.5538462 318.722973,16.7145299 318.374324,17.0358974 C318.025676,17.357265 317.851351,17.7709402 317.851351,18.2769231 C317.851351,18.7692308 318.025676,19.1760684 318.374324,19.4974359 C318.722973,19.8188034 319.166047,19.9794872 319.703547,19.9794872 C320.22652,19.9794872 320.665963,19.8188034 321.021875,19.4974359 C321.377787,19.1760684 321.555743,18.7692308 321.555743,18.2769231 C321.555743,17.7846154 321.377787,17.374359 321.021875,17.0461538 C320.665963,16.7179487 320.22652,16.5538462 319.703547,16.5538462 Z M328.463345,9.18974359 C326.952534,9.18974359 325.739527,9.48717949 324.824324,10.0820513 C323.909122,10.6769231 323.400676,11.5145299 323.298986,12.5948718 L326.2625,12.5948718 C326.335135,12.1982906 326.553041,11.8837607 326.916216,11.6512821 C327.279392,11.4188034 327.744257,11.3025641 328.310811,11.3025641 C328.95,11.3025641 329.458446,11.442735 329.836149,11.7230769 C330.213851,12.0034188 330.402703,12.382906 330.402703,12.8615385 L330.402703,13.374359 L328.180068,13.374359 C326.509459,13.374359 325.234713,13.6786325 324.355828,14.2871795 C323.476943,14.8957265 323.0375,15.7606838 323.0375,16.8820513 C323.0375,17.8666667 323.418834,18.6290598 324.181503,19.1692308 C324.944172,19.7094017 325.950169,19.9794872 327.199493,19.9794872 C328.042061,19.9794872 328.761149,19.8222222 329.356757,19.5076923 C329.952365,19.1931624 330.453547,18.7350427 330.860304,18.1333333 C330.83125,19.2820513 331.521284,19.8564103 332.930405,19.8564103 L334.499324,19.8564103 L334.499324,17.4153846 L334.150676,17.4153846 C333.903716,17.4153846 333.722128,17.3675214 333.605912,17.2717949 C333.489696,17.1760684 333.431588,16.9982906 333.431588,16.7384615 L333.431588,13.025641 C333.431588,11.7811966 332.999409,10.8307692 332.135051,10.174359 C331.270693,9.51794872 330.046791,9.18974359 328.463345,9.18974359 Z M338.77027,9.31282051 L335.697804,9.31282051 L335.697804,19.8564103 L338.77027,19.8564103 L338.77027,9.31282051 Z M330.402703,15.3025641 L330.402703,15.5076923 C330.388176,16.2324786 330.14848,16.8102564 329.683615,17.2410256 C329.21875,17.6717949 328.586824,17.8871795 327.787838,17.8871795 C327.279392,17.8871795 326.876267,17.7777778 326.578463,17.5589744 C326.280659,17.3401709 326.131757,17.0461538 326.131757,16.6769231 C326.131757,16.2393162 326.309713,15.9008547 326.665625,15.6615385 C327.021537,15.4222222 327.519088,15.3025641 328.158277,15.3025641 L330.402703,15.3025641 Z M337.244932,4.92307692 C336.736486,4.92307692 336.311571,5.07692308 335.970186,5.38461538 C335.628801,5.69230769 335.458108,6.07863248 335.458108,6.54358974 C335.458108,7.00854701 335.628801,7.3982906 335.970186,7.71282051 C336.311571,8.02735043 336.736486,8.18461538 337.244932,8.18461538 C337.753378,8.18461538 338.174662,8.02735043 338.508784,7.71282051 C338.842905,7.3982906 339.009966,7.00854701 339.009966,6.54358974 C339.009966,6.07863248 338.842905,5.69230769 338.508784,5.38461538 C338.174662,5.07692308 337.753378,4.92307692 337.244932,4.92307692 Z" id="Combined-Shape"></path>
        </g>
    </g>
</svg>